# xmcd
#
# Track frame offsets:
# 150
# 33778
# 85150
# 118830
# 153478
# 188803
#
# Disc length: 2937 seconds
#
#
# Revision: 0
# Processed by: cddbd v1.5.2PL0 Copyright (c) Steve Scherf et al.
# Submitted via: FreeRIP 2.951 
#
DISCID=420b7706
DTITLE=Lubos Andrst - Acoustic Set
DYEAR=1996
DGENRE=
TTITLE0=Follow Your Heart
TTITLE1=Wide Open Door
TTITLE2=Ikebana
TTITLE3=Song for Saxophone Joe
TTITLE4=Raven
TTITLE5=Europe Blues
EXTD=
EXTT0=
EXTT1=
EXTT2=
EXTT3=
EXTT4=
EXTT5=
PLAYORDER=
